<svg width="55" height="55" viewBox="0 0 55 55" fill="none" xmlns="http://www.w3.org/2000/svg">
<path d="M42.6249 49.0419V39.8752H12.3749V49.0419H10.5416V39.8752H6.87492C6.41659 39.8752 5.95825 39.4169 5.95825 38.9586V29.7919C5.95825 27.0419 7.33325 24.5211 9.85409 23.1461L10.5416 22.6877V8.25024H12.3749V12.8336H42.6249V8.25024H44.4583V22.6877L45.1458 23.1461C47.6666 24.5211 49.0416 27.0419 49.0416 29.7919V38.9586C49.0416 39.4169 48.5833 39.8752 48.1249 39.8752H44.4583V49.0419H42.6249ZM13.7499 23.8336C10.5416 23.8336 7.79159 26.5836 7.79159 29.7919V38.0419H47.2083V29.7919C47.2083 26.5836 44.4583 23.8336 41.2499 23.8336H13.7499ZM28.4166 22.0002H42.6249V14.6669H28.4166V22.0002ZM12.3749 22.0002H26.5833V14.6669H12.3749V22.0002Z" fill="#B5A89D"/>
</svg>
