<svg width="55" height="55" viewBox="0 0 55 55" fill="none" xmlns="http://www.w3.org/2000/svg">
<path d="M38.0416 49.0419V42.1669H16.9583V49.0419H15.1249V41.7086L14.2083 41.4794C9.16658 39.6461 5.95825 35.0627 5.95825 29.7919V25.2086C5.95825 24.7502 6.41659 24.2919 6.87492 24.2919H12.8333V16.0419C12.8333 11.6877 16.2708 8.25024 20.6249 8.25024C24.5208 8.25024 27.7291 11.0002 28.1874 14.6669H26.3541C25.6666 12.1461 23.3749 10.0836 20.6249 10.0836C17.4166 10.0836 14.6666 12.8336 14.6666 16.0419V24.2919H48.1249C48.5833 24.2919 49.0416 24.7502 49.0416 25.2086V29.7919C49.0416 35.0627 45.8333 39.6461 40.7916 41.4794L39.8749 41.7086V49.0419H38.0416ZM7.79159 29.7919C7.79159 35.5211 12.6041 40.3336 18.3333 40.3336H36.6666C42.3958 40.3336 47.2083 35.5211 47.2083 29.7919V26.1252H7.79159V29.7919Z" fill="#B5A89D"/>
</svg>
