<svg width="55" height="55" viewBox="0 0 55 55" fill="none" xmlns="http://www.w3.org/2000/svg">
<path d="M25.2083 49.0418C24.9791 49.0418 24.7499 49.0418 24.7499 48.8127C24.5208 48.5835 24.2916 48.3543 24.2916 48.1252V44.4585H13.7499C13.2916 44.4585 12.8333 44.0002 12.8333 43.5418V11.4585C12.8333 11.0002 13.2916 10.5418 13.7499 10.5418H24.2916V6.87516C24.2916 6.646 24.5208 6.41683 24.7499 6.18766C24.9791 5.9585 25.2083 5.9585 25.2083 5.9585L43.7708 10.5418C44.2291 10.5418 44.4582 11.0002 44.4582 11.4585V43.5418C44.4582 44.0002 44.2291 44.2293 43.7708 44.4585L25.2083 49.0418ZM26.1249 46.9793L42.6249 42.8543V12.146L26.1249 8.021V46.9793ZM14.6666 42.6252H24.2916V12.3752H14.6666V42.6252Z" fill="#B5A89D"/>
<path d="M32.5416 30.25C33.4583 30.0209 34.375 29.1042 34.375 27.9584V27.0417C34.375 25.8959 33.6875 24.9792 32.5416 24.75C31.1666 24.2917 29.7916 25.4375 29.7916 27.0417V27.9584C29.7916 29.3334 31.1666 30.4792 32.5416 30.25Z" fill="#B5A89D"/>
<path d="M32.0833 28.8748C31.625 28.8748 31.1666 28.4164 31.1666 27.9581V27.0414C31.1666 26.5831 31.625 26.1248 32.0833 26.1248C32.7708 26.3539 33 26.5831 33 27.0414V27.9581C33 28.4164 32.7708 28.6456 32.0833 28.8748Z" fill="#B5A89D"/>
</svg>
