<svg width="55" height="55" viewBox="0 0 55 55" fill="none" xmlns="http://www.w3.org/2000/svg">
<path d="M13.75 49.271C11.9167 49.271 10.3125 47.6668 10.3125 45.8335V28.646H6.87503C6.4167 28.646 5.95837 28.4168 5.7292 27.9585C5.50003 27.5002 5.7292 27.0418 5.95837 26.8127L26.5834 6.18766C26.8125 5.9585 27.0417 5.9585 27.5 5.9585C27.9584 5.9585 28.1875 6.18766 28.4167 6.18766L49.0417 26.8127C49.2709 27.0418 49.5 27.7293 49.2709 27.9585C49.0417 28.4168 48.5834 28.646 48.125 28.646H44.6875V45.8335C44.6875 47.6668 43.0834 49.271 41.25 49.271H13.75ZM32.0834 30.9377C33.9167 30.9377 35.5209 32.5418 35.5209 34.3752V46.9793H42.3959V23.3752L27.5 8.47933L12.6042 23.3752V46.9793H19.4792V34.3752C19.4792 32.5418 21.0834 30.9377 22.9167 30.9377H32.0834ZM21.7709 46.9793H33.2292V33.2293H21.7709V46.9793Z" fill="#B5A89D"/>
</svg>
