<svg width="53" height="53" viewBox="0 0 53 53" fill="none" xmlns="http://www.w3.org/2000/svg">
<path d="M41.9584 6.625H39.75C37.1 6.625 35.3334 9.49583 35.3334 13.25V30.9167H39.75V46.375H44.1667V8.83333C44.1667 7.50833 43.2834 6.625 41.9584 6.625ZM42.8417 45.05H41.075V29.5917H36.6584V13.25C36.6584 10.1583 37.9834 7.95 39.75 7.95H41.9584C42.4 7.95 42.8417 8.39167 42.8417 8.83333V45.05Z" fill="#B5A89D"/>
<path d="M26.5 22.0833H22.0834V6.625H17.6667V22.0833H13.25V6.625H8.83337V24.2917C8.83337 28.0458 11.7042 30.9167 15.4584 30.9167H17.6667V46.375H22.0834V30.9167H24.2917C28.0459 30.9167 30.9167 28.0458 30.9167 24.2917V6.625H26.5V22.0833ZM27.825 7.95H29.5917V24.2917C29.5917 27.1625 27.1625 29.5917 24.2917 29.5917H20.7584V45.05H18.9917V29.5917H15.4584C12.5875 29.5917 10.1584 27.1625 10.1584 24.2917V7.95H11.925V23.4083H18.9917V7.95H20.7584V23.4083H27.825V7.95Z" fill="#B5A89D"/>
</svg>
