<svg width="55" height="55" viewBox="0 0 55 55" fill="none" xmlns="http://www.w3.org/2000/svg">
<path d="M27.5 49.2709C15.5833 49.2709 5.72913 39.4167 5.72913 27.5001C5.72913 15.5834 15.5833 5.72925 27.5 5.72925C35.75 5.72925 43.3125 10.3126 46.9791 17.8751C47.2083 18.3334 46.9791 19.0209 46.5208 19.4792L32.0833 27.5001L46.5208 35.7501C46.9791 35.9792 47.2083 36.6667 46.9791 37.3542C43.3125 44.6876 35.75 49.2709 27.5 49.2709ZM27.5 8.02091C16.7291 8.02091 8.02079 16.7292 8.02079 27.5001C8.02079 38.2709 16.7291 46.9792 27.5 46.9792C34.1458 46.9792 40.1041 43.7709 43.7708 38.2709L44.4583 37.3542L29.3333 28.6459C28.875 28.4167 28.6458 27.9584 28.6458 27.7292C28.6458 27.5001 28.875 27.0417 29.3333 26.8126L44.4583 18.1042L43.7708 17.1876C40.1041 11.2292 34.1458 8.02091 27.5 8.02091Z" fill="#B5A89D"/>
<path d="M26.3541 20.625C28.2526 20.625 29.7916 19.086 29.7916 17.1875C29.7916 15.289 28.2526 13.75 26.3541 13.75C24.4556 13.75 22.9166 15.289 22.9166 17.1875C22.9166 19.086 24.4556 20.625 26.3541 20.625Z" fill="#B5A89D"/>
</svg>
