<svg width="22" height="22" viewBox="0 0 22 22" fill="none" xmlns="http://www.w3.org/2000/svg">
<path d="M20.3438 0.84375H1.65625C1.20684 0.84375 0.84375 1.20684 0.84375 1.65625V20.3438C0.84375 20.7932 1.20684 21.1562 1.65625 21.1562H20.3438C20.7932 21.1562 21.1562 20.7932 21.1562 20.3438V1.65625C21.1562 1.20684 20.7932 0.84375 20.3438 0.84375ZM19.5312 19.5312H14.8568V13.2902H17.4975L17.8936 10.2256H14.8568V8.26797C14.8568 7.3793 15.1031 6.775 16.3752 6.775H17.9977V4.03281C17.7158 3.99473 16.7535 3.91094 15.6313 3.91094C13.2902 3.91094 11.6881 5.34043 11.6881 7.96328V10.223H9.04238V13.2877H11.6906V19.5312H2.46875V2.46875H19.5312V19.5312Z" fill="#22221F"/>
</svg>
