<svg width="82" height="82" viewBox="0 0 82 82" fill="none" xmlns="http://www.w3.org/2000/svg">
<path d="M40.887 20.1025C29.3847 20.1025 20.1018 29.3854 20.1018 40.8877C20.1018 52.39 29.3847 61.6729 40.887 61.6729C52.3893 61.6729 61.6722 52.39 61.6722 40.8877C61.6722 29.3854 52.3893 20.1025 40.887 20.1025ZM40.887 54.3966C33.4485 54.3966 27.3781 48.3262 27.3781 40.8877C27.3781 33.4492 33.4485 27.3789 40.887 27.3789C48.3255 27.3789 54.3958 33.4492 54.3958 40.8877C54.3958 48.3262 48.3255 54.3966 40.887 54.3966ZM62.5234 14.4071C59.8379 14.4071 57.6692 16.5758 57.6692 19.2614C57.6692 21.9469 59.8379 24.1157 62.5234 24.1157C65.209 24.1157 67.3777 21.9571 67.3777 19.2614C67.3785 18.6237 67.2535 17.9921 67.0098 17.4028C66.7662 16.8135 66.4086 16.278 65.9577 15.8271C65.5068 15.3762 64.9713 15.0187 64.382 14.775C63.7927 14.5313 63.1611 14.4063 62.5234 14.4071ZM81.4034 40.8877C81.4034 35.2936 81.4541 29.7503 81.1399 24.1663C80.8258 17.6805 79.3462 11.9243 74.6034 7.18146C69.8504 2.42853 64.1044 0.95908 57.6185 0.644921C52.0244 0.330761 46.481 0.381432 40.8971 0.381432C35.3031 0.381432 29.7597 0.330761 24.1757 0.644921C17.6899 0.95908 11.9337 2.43867 7.19086 7.18146C2.43793 11.9344 0.968479 17.6805 0.65432 24.1663C0.340161 29.7604 0.390832 35.3038 0.390832 40.8877C0.390832 46.4716 0.340161 52.0252 0.65432 57.6091C0.968479 64.095 2.44807 69.8512 7.19086 74.594C11.9438 79.3469 17.6899 80.8163 24.1757 81.1305C29.7698 81.4447 35.3132 81.394 40.8971 81.394C46.4912 81.394 52.0346 81.4447 57.6185 81.1305C64.1044 80.8163 69.8606 79.3367 74.6034 74.594C79.3563 69.841 80.8258 64.095 81.1399 57.6091C81.4642 52.0252 81.4034 46.4818 81.4034 40.8877ZM72.4853 64.7841C71.7455 66.6285 70.8537 68.0067 69.4248 69.4255C67.9959 70.8544 66.6278 71.7463 64.7834 72.4861C59.4528 74.6041 46.7952 74.1278 40.887 74.1278C34.9788 74.1278 22.311 74.6041 16.9805 72.4962C15.1361 71.7564 13.7578 70.8646 12.339 69.4357C10.9101 68.0068 10.0183 66.6386 9.2785 64.7942C7.17059 59.4535 7.6469 46.7959 7.6469 40.8877C7.6469 34.9795 7.17059 22.3118 9.2785 16.9812C10.0183 15.1368 10.9101 13.7585 12.339 12.3398C13.7679 10.921 15.1361 10.019 16.9805 9.27923C22.311 7.17133 34.9788 7.64763 40.887 7.64763C46.7952 7.64763 59.4629 7.17133 64.7935 9.27923C66.6379 10.019 68.0162 10.9108 69.4349 12.3398C70.8639 13.7687 71.7557 15.1368 72.4955 16.9812C74.6034 22.3118 74.1271 34.9795 74.1271 40.8877C74.1271 46.7959 74.6034 59.4535 72.4853 64.7841Z" fill="#22221F"/>
</svg>
